<svg width="25" height="25" viewBox="0 0 25 25" fill="none" xmlns="http://www.w3.org/2000/svg">
<path d="M12.8335 5.19109C15.0712 5.19109 16.5807 6.15766 17.4413 6.96535L20.8045 3.68165C18.7389 1.76174 16.051 0.583313 12.8335 0.583313C8.1728 0.583313 4.14762 3.25794 2.18799 7.15072L6.04104 10.1431C7.00762 7.26989 9.68225 5.19109 12.8335 5.19109V5.19109Z" fill="#EA4335"/>
<path d="M24.2735 12.7648C24.2735 11.785 24.1941 11.07 24.0219 10.3285H12.8335V14.7509H19.4009C19.2685 15.8499 18.5535 17.505 16.9646 18.6172L20.725 21.5302C22.9759 19.4514 24.2735 16.3928 24.2735 12.7648V12.7648Z" fill="#4285F4"/>
<path d="M6.0544 14.8569C5.80282 14.1154 5.65718 13.3209 5.65718 12.5C5.65718 11.6791 5.80283 10.8846 6.04116 10.1432L2.1881 7.15076C1.38042 8.76613 0.916992 10.5801 0.916992 12.5C0.916992 14.4199 1.38042 16.2339 2.1881 17.8493L6.0544 14.8569V14.8569Z" fill="#FBBC05"/>
<path d="M12.8335 24.4167C16.051 24.4167 18.7521 23.3574 20.725 21.5302L16.9646 18.6172C15.9583 19.319 14.6077 19.8089 12.8335 19.8089C9.68219 19.8089 7.00756 17.7301 6.05423 14.8569L2.20117 17.8493C4.1608 21.7421 8.17275 24.4167 12.8335 24.4167V24.4167Z" fill="#34A853"/>
</svg>
